<mxfile host="app.diagrams.net" modified="2023-05-15T05:45:16.446Z" agent="Mozilla/5.0 (Windows NT 10.0; Win64; x64) AppleWebKit/537.36 (KHTML, like Gecko) Chrome/112.0.0.0 Safari/537.36 OPR/98.0.0.0" etag="R8T6ufDkDRBL3CFUwGK1" version="21.3.0" type="device">
  <diagram name="Página-1" id="2NCKRFm3kJzcGgMdM68o">
    <mxGraphModel dx="1954" dy="528" grid="1" gridSize="10" guides="1" tooltips="1" connect="1" arrows="1" fold="1" page="1" pageScale="1" pageWidth="827" pageHeight="1169" math="0" shadow="0">
      <root>
        <mxCell id="0" />
        <mxCell id="1" parent="0" />
        <mxCell id="xBol-2ABwrzWOiANkheO-1" value="P1: Purificación de aire" style="swimlane;whiteSpace=wrap;html=1;" vertex="1" parent="1">
          <mxGeometry x="30" y="500" width="200" height="110" as="geometry">
            <mxRectangle x="30" y="500" width="170" height="30" as="alternateBounds" />
          </mxGeometry>
        </mxCell>
        <mxCell id="xBol-2ABwrzWOiANkheO-14" value="&lt;font style=&quot;font-size: 14px;&quot;&gt;Purificación mediante unidad &lt;br&gt;de mantenimiento&lt;/font&gt;" style="text;html=1;align=center;verticalAlign=middle;resizable=0;points=[];autosize=1;strokeColor=none;fillColor=none;" vertex="1" parent="xBol-2ABwrzWOiANkheO-1">
          <mxGeometry y="38" width="200" height="50" as="geometry" />
        </mxCell>
        <mxCell id="xBol-2ABwrzWOiANkheO-8" style="edgeStyle=orthogonalEdgeStyle;rounded=0;orthogonalLoop=1;jettySize=auto;html=1;exitX=1;exitY=0.5;exitDx=0;exitDy=0;entryX=0;entryY=0.5;entryDx=0;entryDy=0;" edge="1" parent="1" source="xBol-2ABwrzWOiANkheO-2" target="xBol-2ABwrzWOiANkheO-3">
          <mxGeometry relative="1" as="geometry">
            <mxPoint x="560" y="390" as="targetPoint" />
          </mxGeometry>
        </mxCell>
        <mxCell id="xBol-2ABwrzWOiANkheO-38" value="Cambio a &lt;br&gt;Estado 2" style="edgeLabel;html=1;align=center;verticalAlign=middle;resizable=0;points=[];" vertex="1" connectable="0" parent="xBol-2ABwrzWOiANkheO-8">
          <mxGeometry x="-0.351" y="2" relative="1" as="geometry">
            <mxPoint x="7" y="-3" as="offset" />
          </mxGeometry>
        </mxCell>
        <mxCell id="xBol-2ABwrzWOiANkheO-2" value="P3:&amp;nbsp; Accionamiento A-" style="swimlane;whiteSpace=wrap;html=1;" vertex="1" parent="1">
          <mxGeometry x="290" y="280" width="200" height="110" as="geometry" />
        </mxCell>
        <mxCell id="xBol-2ABwrzWOiANkheO-10" value="&lt;font style=&quot;font-size: 14px;&quot;&gt;Cierre de cilindro DE A&lt;/font&gt;" style="text;html=1;align=center;verticalAlign=middle;resizable=0;points=[];autosize=1;strokeColor=none;fillColor=none;" vertex="1" parent="xBol-2ABwrzWOiANkheO-2">
          <mxGeometry x="15" y="50" width="170" height="30" as="geometry" />
        </mxCell>
        <mxCell id="xBol-2ABwrzWOiANkheO-6" style="edgeStyle=orthogonalEdgeStyle;rounded=0;orthogonalLoop=1;jettySize=auto;html=1;entryX=1;entryY=0.75;entryDx=0;entryDy=0;" edge="1" parent="1" source="xBol-2ABwrzWOiANkheO-3" target="xBol-2ABwrzWOiANkheO-5">
          <mxGeometry relative="1" as="geometry" />
        </mxCell>
        <mxCell id="xBol-2ABwrzWOiANkheO-39" value="Cambio a &lt;br&gt;Estado 3" style="edgeLabel;html=1;align=center;verticalAlign=middle;resizable=0;points=[];" vertex="1" connectable="0" parent="xBol-2ABwrzWOiANkheO-6">
          <mxGeometry x="-0.4211" y="1" relative="1" as="geometry">
            <mxPoint as="offset" />
          </mxGeometry>
        </mxCell>
        <mxCell id="xBol-2ABwrzWOiANkheO-3" value="P4: Accionamiento B+" style="swimlane;whiteSpace=wrap;html=1;" vertex="1" parent="1">
          <mxGeometry x="560" y="280" width="200" height="110" as="geometry" />
        </mxCell>
        <mxCell id="xBol-2ABwrzWOiANkheO-11" value="&lt;font style=&quot;font-size: 14px;&quot;&gt;Apertura de cilindro DE A&lt;/font&gt;" style="text;html=1;align=center;verticalAlign=middle;resizable=0;points=[];autosize=1;strokeColor=none;fillColor=none;" vertex="1" parent="xBol-2ABwrzWOiANkheO-3">
          <mxGeometry x="10" y="50" width="180" height="30" as="geometry" />
        </mxCell>
        <mxCell id="xBol-2ABwrzWOiANkheO-9" style="edgeStyle=orthogonalEdgeStyle;rounded=0;orthogonalLoop=1;jettySize=auto;html=1;entryX=0;entryY=0.5;entryDx=0;entryDy=0;" edge="1" parent="1" source="xBol-2ABwrzWOiANkheO-4" target="xBol-2ABwrzWOiANkheO-2">
          <mxGeometry relative="1" as="geometry" />
        </mxCell>
        <mxCell id="xBol-2ABwrzWOiANkheO-37" value="Start ciclo&lt;br&gt;Estado 1" style="edgeLabel;html=1;align=center;verticalAlign=middle;resizable=0;points=[];" vertex="1" connectable="0" parent="xBol-2ABwrzWOiANkheO-9">
          <mxGeometry x="-0.281" y="1" relative="1" as="geometry">
            <mxPoint x="2" y="1" as="offset" />
          </mxGeometry>
        </mxCell>
        <mxCell id="xBol-2ABwrzWOiANkheO-4" value="P2: Activación bloque bimanual" style="swimlane;whiteSpace=wrap;html=1;" vertex="1" parent="1">
          <mxGeometry x="24" y="280" width="200" height="110" as="geometry">
            <mxRectangle x="-30" y="250" width="220" height="30" as="alternateBounds" />
          </mxGeometry>
        </mxCell>
        <mxCell id="xBol-2ABwrzWOiANkheO-32" value="&lt;font style=&quot;font-size: 14px;&quot;&gt;Inicio de secuencia&lt;/font&gt;" style="text;html=1;align=center;verticalAlign=middle;resizable=0;points=[];autosize=1;strokeColor=none;fillColor=none;" vertex="1" parent="xBol-2ABwrzWOiANkheO-4">
          <mxGeometry x="30" y="47.5" width="140" height="30" as="geometry" />
        </mxCell>
        <mxCell id="xBol-2ABwrzWOiANkheO-7" style="edgeStyle=orthogonalEdgeStyle;rounded=0;orthogonalLoop=1;jettySize=auto;html=1;exitX=0;exitY=0.75;exitDx=0;exitDy=0;entryX=0.5;entryY=1;entryDx=0;entryDy=0;" edge="1" parent="1" source="xBol-2ABwrzWOiANkheO-5" target="xBol-2ABwrzWOiANkheO-2">
          <mxGeometry relative="1" as="geometry" />
        </mxCell>
        <mxCell id="xBol-2ABwrzWOiANkheO-40" value="Reinicio a&amp;nbsp;&lt;br&gt;Estado 1" style="edgeLabel;html=1;align=center;verticalAlign=middle;resizable=0;points=[];" vertex="1" connectable="0" parent="xBol-2ABwrzWOiANkheO-7">
          <mxGeometry x="0.4856" relative="1" as="geometry">
            <mxPoint as="offset" />
          </mxGeometry>
        </mxCell>
        <mxCell id="xBol-2ABwrzWOiANkheO-5" value="P5: Accionamiento A+ B-" style="swimlane;whiteSpace=wrap;html=1;" vertex="1" parent="1">
          <mxGeometry x="430" y="420" width="200" height="120" as="geometry" />
        </mxCell>
        <mxCell id="xBol-2ABwrzWOiANkheO-12" value="&lt;font style=&quot;font-size: 14px;&quot;&gt;Apertura de cilindro DE A&lt;br&gt;Cierre de cilindro DE B&lt;/font&gt;" style="text;html=1;align=center;verticalAlign=middle;resizable=0;points=[];autosize=1;strokeColor=none;fillColor=none;" vertex="1" parent="xBol-2ABwrzWOiANkheO-5">
          <mxGeometry x="10" y="50" width="180" height="50" as="geometry" />
        </mxCell>
        <mxCell id="xBol-2ABwrzWOiANkheO-15" value="" style="endArrow=classic;html=1;rounded=0;entryX=0.273;entryY=0.009;entryDx=0;entryDy=0;entryPerimeter=0;edgeStyle=orthogonalEdgeStyle;strokeColor=#E81313;" edge="1" parent="1" target="xBol-2ABwrzWOiANkheO-2">
          <mxGeometry width="50" height="50" relative="1" as="geometry">
            <mxPoint x="130" y="210" as="sourcePoint" />
            <mxPoint x="180" y="90" as="targetPoint" />
            <Array as="points">
              <mxPoint x="345" y="210" />
            </Array>
          </mxGeometry>
        </mxCell>
        <mxCell id="xBol-2ABwrzWOiANkheO-16" value="Señal A1" style="edgeLabel;html=1;align=center;verticalAlign=middle;resizable=0;points=[];" vertex="1" connectable="0" parent="xBol-2ABwrzWOiANkheO-15">
          <mxGeometry x="-0.339" y="1" relative="1" as="geometry">
            <mxPoint as="offset" />
          </mxGeometry>
        </mxCell>
        <mxCell id="xBol-2ABwrzWOiANkheO-17" value="" style="endArrow=classic;html=1;rounded=0;entryX=0.406;entryY=0.009;entryDx=0;entryDy=0;entryPerimeter=0;edgeStyle=orthogonalEdgeStyle;strokeColor=#E81313;" edge="1" parent="1" target="xBol-2ABwrzWOiANkheO-3">
          <mxGeometry width="50" height="50" relative="1" as="geometry">
            <mxPoint x="130" y="160" as="sourcePoint" />
            <mxPoint x="345" y="211" as="targetPoint" />
          </mxGeometry>
        </mxCell>
        <mxCell id="xBol-2ABwrzWOiANkheO-18" value="Señal A0" style="edgeLabel;html=1;align=center;verticalAlign=middle;resizable=0;points=[];" vertex="1" connectable="0" parent="xBol-2ABwrzWOiANkheO-17">
          <mxGeometry x="-0.339" y="1" relative="1" as="geometry">
            <mxPoint as="offset" />
          </mxGeometry>
        </mxCell>
        <mxCell id="xBol-2ABwrzWOiANkheO-19" value="" style="endArrow=classic;html=1;rounded=0;edgeStyle=orthogonalEdgeStyle;strokeColor=#0000FF;entryX=0.25;entryY=1;entryDx=0;entryDy=0;" edge="1" parent="1" target="xBol-2ABwrzWOiANkheO-2">
          <mxGeometry width="50" height="50" relative="1" as="geometry">
            <mxPoint x="230" y="580" as="sourcePoint" />
            <mxPoint x="310" y="390" as="targetPoint" />
            <Array as="points">
              <mxPoint x="232" y="580" />
              <mxPoint x="340" y="580" />
            </Array>
          </mxGeometry>
        </mxCell>
        <mxCell id="xBol-2ABwrzWOiANkheO-23" value="Aire purificado" style="edgeLabel;html=1;align=center;verticalAlign=middle;resizable=0;points=[];" vertex="1" connectable="0" parent="xBol-2ABwrzWOiANkheO-19">
          <mxGeometry x="-0.7237" y="1" relative="1" as="geometry">
            <mxPoint as="offset" />
          </mxGeometry>
        </mxCell>
        <mxCell id="xBol-2ABwrzWOiANkheO-21" value="" style="endArrow=classic;html=1;rounded=0;edgeStyle=orthogonalEdgeStyle;entryX=0.5;entryY=1;entryDx=0;entryDy=0;strokeColor=#0000FF;" edge="1" parent="1" target="xBol-2ABwrzWOiANkheO-5">
          <mxGeometry width="50" height="50" relative="1" as="geometry">
            <mxPoint x="340" y="576" as="sourcePoint" />
            <mxPoint x="450" y="390" as="targetPoint" />
            <Array as="points">
              <mxPoint x="340" y="580" />
              <mxPoint x="530" y="580" />
            </Array>
          </mxGeometry>
        </mxCell>
        <mxCell id="xBol-2ABwrzWOiANkheO-22" value="" style="endArrow=classic;html=1;rounded=0;edgeStyle=orthogonalEdgeStyle;strokeColor=#0000FF;" edge="1" parent="1">
          <mxGeometry width="50" height="50" relative="1" as="geometry">
            <mxPoint x="530" y="580" as="sourcePoint" />
            <mxPoint x="720" y="390" as="targetPoint" />
          </mxGeometry>
        </mxCell>
        <mxCell id="xBol-2ABwrzWOiANkheO-24" value="" style="endArrow=classic;html=1;rounded=0;edgeStyle=orthogonalEdgeStyle;strokeColor=#0000FF;entryX=0;entryY=0.5;entryDx=0;entryDy=0;" edge="1" parent="1" target="xBol-2ABwrzWOiANkheO-1">
          <mxGeometry width="50" height="50" relative="1" as="geometry">
            <mxPoint x="-160" y="555" as="sourcePoint" />
            <mxPoint x="-20" y="399" as="targetPoint" />
          </mxGeometry>
        </mxCell>
        <mxCell id="xBol-2ABwrzWOiANkheO-25" value="Aire comprimido" style="edgeLabel;html=1;align=center;verticalAlign=middle;resizable=0;points=[];" vertex="1" connectable="0" parent="xBol-2ABwrzWOiANkheO-24">
          <mxGeometry x="-0.7237" y="1" relative="1" as="geometry">
            <mxPoint x="74" y="1" as="offset" />
          </mxGeometry>
        </mxCell>
        <mxCell id="xBol-2ABwrzWOiANkheO-26" value="" style="endArrow=classic;html=1;rounded=0;edgeStyle=orthogonalEdgeStyle;strokeColor=#FFFF00;entryX=0;entryY=0.5;entryDx=0;entryDy=0;" edge="1" parent="1">
          <mxGeometry width="50" height="50" relative="1" as="geometry">
            <mxPoint x="-166" y="330" as="sourcePoint" />
            <mxPoint x="24" y="330" as="targetPoint" />
          </mxGeometry>
        </mxCell>
        <mxCell id="xBol-2ABwrzWOiANkheO-27" value="Señal interruptor Izqueirdo" style="edgeLabel;html=1;align=center;verticalAlign=middle;resizable=0;points=[];" vertex="1" connectable="0" parent="xBol-2ABwrzWOiANkheO-26">
          <mxGeometry x="-0.7237" y="1" relative="1" as="geometry">
            <mxPoint x="74" y="1" as="offset" />
          </mxGeometry>
        </mxCell>
        <mxCell id="xBol-2ABwrzWOiANkheO-28" value="" style="endArrow=classic;html=1;rounded=0;edgeStyle=orthogonalEdgeStyle;strokeColor=#FFFF00;entryX=0;entryY=0.5;entryDx=0;entryDy=0;" edge="1" parent="1">
          <mxGeometry width="50" height="50" relative="1" as="geometry">
            <mxPoint x="-166" y="349.99999999999994" as="sourcePoint" />
            <mxPoint x="24" y="349.99999999999994" as="targetPoint" />
          </mxGeometry>
        </mxCell>
        <mxCell id="xBol-2ABwrzWOiANkheO-29" value="Señal interruptor Derecho" style="edgeLabel;html=1;align=center;verticalAlign=middle;resizable=0;points=[];" vertex="1" connectable="0" parent="xBol-2ABwrzWOiANkheO-28">
          <mxGeometry x="-0.7237" y="1" relative="1" as="geometry">
            <mxPoint x="74" y="1" as="offset" />
          </mxGeometry>
        </mxCell>
        <mxCell id="xBol-2ABwrzWOiANkheO-30" value="" style="endArrow=classic;html=1;rounded=0;edgeStyle=orthogonalEdgeStyle;strokeColor=#FFFF00;entryX=0;entryY=0.5;entryDx=0;entryDy=0;" edge="1" parent="1">
          <mxGeometry width="50" height="50" relative="1" as="geometry">
            <mxPoint x="-166" y="380" as="sourcePoint" />
            <mxPoint x="24" y="380" as="targetPoint" />
          </mxGeometry>
        </mxCell>
        <mxCell id="xBol-2ABwrzWOiANkheO-31" value="Señal Emergencia" style="edgeLabel;html=1;align=center;verticalAlign=middle;resizable=0;points=[];" vertex="1" connectable="0" parent="xBol-2ABwrzWOiANkheO-30">
          <mxGeometry x="-0.7237" y="1" relative="1" as="geometry">
            <mxPoint x="74" y="1" as="offset" />
          </mxGeometry>
        </mxCell>
        <mxCell id="xBol-2ABwrzWOiANkheO-33" value="" style="endArrow=classic;html=1;rounded=0;edgeStyle=orthogonalEdgeStyle;entryX=0.542;entryY=-0.029;entryDx=0;entryDy=0;entryPerimeter=0;strokeColor=#E81313;" edge="1" parent="1" target="xBol-2ABwrzWOiANkheO-2">
          <mxGeometry width="50" height="50" relative="1" as="geometry">
            <mxPoint x="130" y="180" as="sourcePoint" />
            <mxPoint x="400" y="270" as="targetPoint" />
            <Array as="points">
              <mxPoint x="398" y="180" />
              <mxPoint x="398" y="251" />
            </Array>
          </mxGeometry>
        </mxCell>
        <mxCell id="xBol-2ABwrzWOiANkheO-34" value="Señal B0" style="edgeLabel;html=1;align=center;verticalAlign=middle;resizable=0;points=[];" vertex="1" connectable="0" parent="xBol-2ABwrzWOiANkheO-33">
          <mxGeometry x="-0.339" y="1" relative="1" as="geometry">
            <mxPoint as="offset" />
          </mxGeometry>
        </mxCell>
        <mxCell id="xBol-2ABwrzWOiANkheO-35" value="" style="endArrow=classic;html=1;rounded=0;edgeStyle=orthogonalEdgeStyle;strokeColor=#E81313;" edge="1" parent="1">
          <mxGeometry width="50" height="50" relative="1" as="geometry">
            <mxPoint x="690" y="610" as="sourcePoint" />
            <mxPoint x="485" y="540" as="targetPoint" />
            <Array as="points">
              <mxPoint x="485" y="610" />
            </Array>
          </mxGeometry>
        </mxCell>
        <mxCell id="xBol-2ABwrzWOiANkheO-36" value="Señal B1" style="edgeLabel;html=1;align=center;verticalAlign=middle;resizable=0;points=[];" vertex="1" connectable="0" parent="xBol-2ABwrzWOiANkheO-35">
          <mxGeometry x="-0.339" y="1" relative="1" as="geometry">
            <mxPoint as="offset" />
          </mxGeometry>
        </mxCell>
      </root>
    </mxGraphModel>
  </diagram>
</mxfile>
